<svg width="300" height="300" viewBox="0 0 300 300" fill="none" xmlns="http://www.w3.org/2000/svg">
<rect width="300" height="300" fill="white"/>
<path d="M91.3162 74.3105C79.546 74.3105 69.9702 83.8865 69.9702 95.657V213.56C69.9702 225.33 79.546 234.906 91.3162 234.906H209.22C220.989 234.906 230.565 225.33 230.565 213.56V95.657C230.565 83.8865 220.989 74.3105 209.22 74.3105H91.3162ZM209.22 246.876H91.3162C72.9455 246.876 58 231.93 58 213.56V95.657C58 77.2865 72.9455 62.3405 91.3162 62.3405H209.22C227.591 62.3405 242.535 77.2865 242.535 95.657V213.56C242.535 231.93 227.591 246.876 209.22 246.876Z" fill="#3A3335"/>
<path d="M231.603 113.185H63.9852C60.6798 113.185 58 110.504 58 107.198C58 103.894 60.6798 101.213 63.9852 101.213H231.603C234.909 101.213 237.588 103.894 237.588 107.198C237.588 110.504 234.909 113.185 231.603 113.185Z" fill="#3A3335"/>
<path d="M96.0718 83.5115C92.7661 83.5115 90.0867 80.8325 90.0867 77.5265V58.985C90.0867 55.679 92.7661 53 96.0718 53C99.3772 53 102.057 55.679 102.057 58.985V77.5265C102.057 80.8325 99.3772 83.5115 96.0718 83.5115Z" fill="#3A3335"/>
<path d="M125.055 83.5115C121.75 83.5115 119.07 80.8325 119.07 77.5265V58.985C119.07 55.679 121.75 53 125.055 53C128.361 53 131.04 55.679 131.04 58.985V77.5265C131.04 80.8325 128.361 83.5115 125.055 83.5115Z" fill="#3A3335"/>
<path d="M154.038 83.5115C150.734 83.5115 148.053 80.8325 148.053 77.5265V58.985C148.053 55.679 150.734 53 154.038 53C157.344 53 160.023 55.679 160.023 58.985V77.5265C160.023 80.8325 157.344 83.5115 154.038 83.5115Z" fill="#3A3335"/>
<path d="M183.023 83.5115C179.717 83.5115 177.036 80.8325 177.036 77.5265V58.985C177.036 55.679 179.717 53 183.023 53C186.327 53 189.008 55.679 189.008 58.985V77.5265C189.008 80.8325 186.327 83.5115 183.023 83.5115Z" fill="#3A3335"/>
<path d="M212.006 83.5115C208.7 83.5115 206.021 80.8325 206.021 77.5265V58.985C206.021 55.679 208.7 53 212.006 53C215.312 53 217.991 55.679 217.991 58.985V77.5265C217.991 80.8325 215.312 83.5115 212.006 83.5115Z" fill="#3A3335"/>
<path d="M119.866 150.077H103.073V133.283H119.866V150.077Z" fill="#3A3335"/>
<path d="M158.664 150.077H141.871V133.283H158.664V150.077Z" fill="#3A3335"/>
<path d="M197.463 150.077H180.671V133.283H197.463V150.077Z" fill="#3A3335"/>
<path d="M119.866 183.966H103.073V167.172H119.866V183.966Z" fill="#3A3335"/>
<path d="M158.664 183.966H141.871V167.172H158.664V183.966Z" fill="#3A3335"/>
<path d="M197.463 183.966H180.671V167.172H197.463V183.966Z" fill="#3A3335"/>
<path d="M119.866 217.854H103.073V201.062H119.866V217.854Z" fill="#3A3335"/>
<path d="M158.664 217.854H141.871V201.062H158.664V217.854Z" fill="#3A3335"/>
<path d="M197.463 217.854H180.671V201.062H197.463V217.854Z" fill="#3A3335"/>
</svg>
